<?xml version="1.0" standalone="no"?><!-- Generator: Gravit.io --><svg xmlns="http://www.w3.org/2000/svg" xmlns:xlink="http://www.w3.org/1999/xlink" style="isolation:isolate" viewBox="2638.19108696906 -1222.1129376268912 297.4499999999998 419.876" width="297.4499999999998" height="419.876"><path d=" M 2871.28408696906 -1206.566937626891 L 2846.5960869690603 -1206.566937626891 L 2872.2700869690602 -1178.7079376268912 L 2872.2700869690602 -1165.4469376268912 L 2819.38808696906 -1165.4469376268912 L 2819.38808696906 -1180.972937626891 L 2845.05708696906 -1180.972937626891 L 2819.38808696906 -1208.8329376268912 L 2819.38808696906 -1222.1129376268912 L 2871.28408696906 -1222.1129376268912 L 2871.28408696906 -1206.566937626891 L 2871.28408696906 -1206.566937626891 Z  M 2808.90608696906 -1206.566937626891 L 2784.21808696906 -1206.566937626891 L 2809.89108696906 -1178.7079376268912 L 2809.89108696906 -1165.4469376268912 L 2757.0090869690603 -1165.4469376268912 L 2757.0090869690603 -1180.972937626891 L 2782.6810869690603 -1180.972937626891 L 2757.0090869690603 -1208.8329376268912 L 2757.0090869690603 -1222.1129376268912 L 2808.90608696906 -1222.1129376268912 L 2808.90608696906 -1206.566937626891 L 2808.90608696906 -1206.566937626891 Z  M 2747.13808696906 -1205.9359376268912 L 2720.4980869690603 -1205.9359376268912 L 2720.4980869690603 -1181.6229376268911 L 2747.13808696906 -1181.6229376268911 L 2747.13808696906 -1165.4469376268912 L 2701.56408696906 -1165.4469376268912 L 2701.56408696906 -1222.1129376268912 L 2747.13808696906 -1222.1129376268912 L 2747.13808696906 -1205.9359376268912 Z " fill-rule="evenodd" fill="rgb(255,255,255)" stroke-width="1" stroke="rgba(0,0,0,0)" stroke-linejoin="miter" stroke-linecap="butt"/><path d=" M 2665.26208696906 -835.9579376268912 L 2638.19108696906 -1139.577937626891 L 2935.64108696906 -1139.577937626891 L 2908.5450869690603 -836.0069376268912 L 2786.73408696906 -802.2369376268912 L 2665.26208696906 -835.9579376268912 Z " fill="rgb(255,255,255)" stroke-width="1" stroke="rgba(0,0,0,0)" stroke-linejoin="miter" stroke-linecap="butt"/><path d=" M 2786.91808696906 -828.0489376268911 L 2885.34508696906 -855.3369376268911 L 2908.50208696906 -1114.751937626891 L 2786.91808696906 -1114.751937626891 L 2786.91808696906 -828.0489376268911 Z " fill="rgb(255,255,255)" stroke-width="1" stroke="rgba(0,0,0,0)" stroke-linejoin="miter" stroke-linecap="butt"/><path d=" M 2786.91708696906 -1004.7519376268912 L 2836.1920869690603 -1004.7519376268912 L 2839.59508696906 -1042.883937626891 L 2786.91708696906 -1042.883937626891 L 2786.91708696906 -1080.1229376268911 L 2787.04608696906 -1080.1229376268911 L 2880.29208696906 -1080.1229376268911 L 2879.39908696906 -1070.1319376268912 L 2870.24708696906 -967.5159376268912 L 2786.91708696906 -967.5159376268912 L 2786.91708696906 -1004.7519376268912 Z " fill="rgb(0,0,0)" stroke-width="1" stroke="rgba(0,0,0,0)" stroke-linejoin="miter" stroke-linecap="butt"/><path d=" M 2787.14008696906 -908.0439376268912 L 2786.97708696906 -907.9979376268911 L 2745.5050869690604 -919.1969376268912 L 2742.8530869690603 -948.8949376268911 L 2722.70208696906 -948.8949376268911 L 2705.4740869690604 -948.8949376268911 L 2710.6900869690603 -890.4279376268912 L 2786.96808696906 -869.2519376268912 L 2787.14008696906 -869.2999376268912 L 2787.14008696906 -908.0439376268912 Z " fill="rgb(0,0,0)" stroke-width="1" stroke="rgba(0,0,0,0)" stroke-linejoin="miter" stroke-linecap="butt"/><path d=" M 2833.0270869690603 -969.0919376268912 L 2828.54308696906 -919.2219376268911 L 2787.01108696906 -908.0119376268912 L 2787.01108696906 -869.2699376268911 L 2863.35008696906 -890.4279376268912 L 2863.91008696906 -896.7179376268912 L 2870.38808696906 -969.0919376268912 L 2833.0270869690603 -969.0919376268912 Z " fill="rgb(0,0,0)" stroke-width="1" stroke="rgba(0,0,0,0)" stroke-linejoin="miter" stroke-linecap="butt"/><path d=" M 2787.04608696906 -1080.1229376268911 L 2787.04608696906 -1056.9949376268912 L 2787.04608696906 -1042.9759376268912 L 2787.04608696906 -1042.883937626891 L 2697.21808696906 -1042.883937626891 L 2697.21808696906 -1042.883937626891 L 2697.09908696906 -1042.883937626891 L 2696.35208696906 -1051.2539376268912 L 2694.65508696906 -1070.1319376268912 L 2693.76508696906 -1080.1229376268911 L 2787.04608696906 -1080.1229376268911 Z " fill="rgb(0,0,0)" stroke-width="1" stroke="rgba(0,0,0,0)" stroke-linejoin="miter" stroke-linecap="butt"/><path d=" M 2786.91708696906 -1004.7479376268911 L 2786.91708696906 -981.6189376268911 L 2786.91708696906 -967.6019376268912 L 2786.91708696906 -967.5099376268911 L 2746.08908696906 -967.5099376268911 L 2746.08908696906 -967.5099376268911 L 2745.97008696906 -967.5099376268911 L 2745.2240869690604 -975.8789376268911 L 2743.52608696906 -994.7569376268912 L 2742.63608696906 -1004.7479376268911 L 2786.91708696906 -1004.7479376268911 Z " fill="rgb(0,0,0)" stroke-width="1" stroke="rgba(0,0,0,0)" stroke-linejoin="miter" stroke-linecap="butt"/></svg>