<?xml version="1.0" standalone="no"?><!-- Generator: Gravit.io --><svg xmlns="http://www.w3.org/2000/svg" xmlns:xlink="http://www.w3.org/1999/xlink" style="isolation:isolate" viewBox="1425.6410869690599 -1377.3510173951408 297.4499999999998 419.851" width="297.4499999999998" height="419.851"><path d=" M 1452.7110869690598 -991.2200173951408 L 1425.6410869690599 -1294.8400173951409 L 1723.0910869690597 -1294.8400173951409 L 1695.9930869690597 -991.2690173951408 L 1574.1840869690598 -957.5000173951408 L 1452.7110869690598 -991.2200173951408 Z " fill="rgb(255,255,255)" stroke-width="1" stroke="rgba(0,0,0,0)" stroke-linejoin="miter" stroke-linecap="butt"/><path d=" M 1574.3660869690598 -983.3110173951409 L 1672.7930869690597 -1010.5990173951409 L 1695.9510869690598 -1270.0150173951408 L 1574.3660869690598 -1270.0150173951408 L 1574.3660869690598 -983.3110173951409 Z " fill="rgb(255,255,255)" stroke-width="1" stroke="rgba(0,0,0,0)" stroke-linejoin="miter" stroke-linecap="butt"/><path d=" M 1574.3660869690598 -1157.406017395141 L 1525.0910869690597 -1157.406017395141 L 1521.6870869690597 -1195.5380173951407 L 1574.3660869690598 -1195.5380173951407 L 1574.3660869690598 -1232.7770173951408 L 1574.2370869690599 -1232.7770173951408 L 1480.9910869690598 -1232.7770173951408 L 1481.8830869690598 -1222.7860173951408 L 1491.0350869690596 -1120.1700173951408 L 1574.3660869690598 -1120.1700173951408 L 1574.3660869690598 -1157.406017395141 Z " fill="rgb(0,0,0)" stroke-width="1" stroke="rgba(0,0,0,0)" stroke-linejoin="miter" stroke-linecap="butt"/><path d=" M 1574.3660869690598 -1060.6980173951408 L 1574.2030869690598 -1060.6520173951408 L 1532.7310869690598 -1071.8510173951408 L 1530.0790869690597 -1101.5490173951407 L 1509.9280869690597 -1101.5490173951407 L 1492.6990869690599 -1101.5490173951407 L 1497.9160869690597 -1043.0820173951408 L 1574.1940869690598 -1021.9060173951409 L 1574.3660869690598 -1021.9540173951409 L 1574.3660869690598 -1060.6980173951408 Z " fill="rgb(0,0,0)" stroke-width="1" stroke="rgba(0,0,0,0)" stroke-linejoin="miter" stroke-linecap="butt"/><path d=" M 1453.3160869690598 -1377.3510173951408 L 1472.2400869690598 -1377.3510173951408 L 1472.2400869690598 -1358.655017395141 L 1489.5510869690597 -1358.655017395141 L 1489.5510869690597 -1377.3510173951408 L 1508.47608696906 -1377.3510173951408 L 1508.47608696906 -1320.733017395141 L 1489.5520869690597 -1320.733017395141 L 1489.5520869690597 -1339.6910173951408 L 1472.2420869690598 -1339.6910173951408 L 1472.2420869690598 -1320.733017395141 L 1453.3160869690598 -1320.733017395141 L 1453.3160869690598 -1377.3510173951408 L 1453.3160869690598 -1377.3510173951408 Z " fill="rgb(255,255,255)" stroke-width="1" stroke="rgba(0,0,0,0)" stroke-linejoin="miter" stroke-linecap="butt"/><path d=" M 1533.3600869690597 -1358.5760173951408 L 1516.7000869690598 -1358.5760173951408 L 1516.7000869690598 -1377.3510173951408 L 1568.9520869690598 -1377.3510173951408 L 1568.9520869690598 -1358.5760173951408 L 1552.2850869690599 -1358.5760173951408 L 1552.2850869690599 -1320.733017395141 L 1533.3610869690597 -1320.733017395141 L 1533.3610869690597 -1358.5760173951408 L 1533.3600869690597 -1358.5760173951408 Z " fill="rgb(255,255,255)" stroke-width="1" stroke="rgba(0,0,0,0)" stroke-linejoin="miter" stroke-linecap="butt"/><path d=" M 1577.2450869690597 -1377.3510173951408 L 1596.9780869690599 -1377.3510173951408 L 1609.1150869690598 -1357.4570173951408 L 1621.2420869690598 -1377.3510173951408 L 1640.9810869690598 -1377.3510173951408 L 1640.9810869690598 -1320.733017395141 L 1622.1350869690598 -1320.733017395141 L 1622.1350869690598 -1348.7960173951408 L 1609.1140869690598 -1328.666017395141 L 1608.7890869690598 -1328.666017395141 L 1595.7610869690598 -1348.7960173951408 L 1595.7610869690598 -1320.733017395141 L 1577.2440869690597 -1320.733017395141 L 1577.2440869690597 -1377.3510173951408 L 1577.2450869690597 -1377.3510173951408 Z " fill="rgb(255,255,255)" stroke-width="1" stroke="rgba(0,0,0,0)" stroke-linejoin="miter" stroke-linecap="butt"/><path d=" M 1650.3990869690597 -1377.3510173951408 L 1669.3280869690598 -1377.3510173951408 L 1669.3280869690598 -1339.4480173951408 L 1695.9400869690598 -1339.4480173951408 L 1695.9400869690598 -1320.7340173951409 L 1650.39808696906 -1320.7340173951409 L 1650.39808696906 -1377.3510173951408 L 1650.3990869690597 -1377.3510173951408 Z " fill="rgb(255,255,255)" stroke-width="1" stroke="rgba(0,0,0,0)" stroke-linejoin="miter" stroke-linecap="butt"/><path d=" M 1574.2370869690599 -1157.406017395141 L 1574.2370869690599 -1120.1700173951408 L 1620.0910869690597 -1120.1700173951408 L 1615.7690869690598 -1071.876017395141 L 1574.2370869690599 -1060.666017395141 L 1574.2370869690599 -1021.9240173951408 L 1650.5770869690598 -1043.0820173951408 L 1651.1360869690598 -1049.3720173951408 L 1659.8870869690597 -1147.4070173951409 L 1660.7950869690599 -1157.406017395141 L 1650.7610869690598 -1157.406017395141 L 1574.2370869690599 -1157.406017395141 Z " fill="rgb(0,0,0)" stroke-width="1" stroke="rgba(0,0,0,0)" stroke-linejoin="miter" stroke-linecap="butt"/><path d=" M 1574.2370869690599 -1232.7770173951408 L 1574.2370869690599 -1209.6490173951408 L 1574.2370869690599 -1195.6300173951408 L 1574.2370869690599 -1195.5380173951407 L 1664.0640869690596 -1195.5380173951407 L 1664.0640869690596 -1195.5380173951407 L 1664.1840869690598 -1195.5380173951407 L 1664.9310869690598 -1203.9080173951409 L 1666.6270869690597 -1222.7860173951408 L 1667.5180869690598 -1232.7770173951408 L 1574.2370869690599 -1232.7770173951408 Z " fill="rgb(0,0,0)" stroke-width="1" stroke="rgba(0,0,0,0)" stroke-linejoin="miter" stroke-linecap="butt"/></svg>