<?xml version="1.0" standalone="no"?><!-- Generator: Gravit.io --><svg xmlns="http://www.w3.org/2000/svg" xmlns:xlink="http://www.w3.org/1999/xlink" style="isolation:isolate" viewBox="780.6383599184339 -1561.801979012454 310.85283018867995 310.85283018867995" width="310.85283018867995" height="310.85283018867995"><rect x="780.6383599184339" y="-1561.801979012454" width="310.85283018867995" height="310.85283018867995" transform="matrix(1,0,0,1,0,0)" fill="rgb(0,0,0)" stroke-width="1.5873015873015872" stroke="rgba(0,0,0,0)" stroke-linejoin="miter" stroke-linecap="butt"/><path d=" M 989.4525150547028 -1318.9469718845708 C 995.7139792056462 -1308.7233676916985 1003.8602970253527 -1301.208623876185 1018.2680789960026 -1301.208623876185 C 1030.37160268573 -1301.208623876185 1038.103450065185 -1307.2579186350947 1038.103450065185 -1315.6164058468348 C 1038.103450065185 -1325.632774819581 1030.1594332936966 -1329.1804444212582 1016.837169142753 -1335.007701444319 L 1009.534594719273 -1338.1409006057447 C 988.4558123293358 -1347.1210934778621 974.452632455122 -1358.3710054275477 974.452632455122 -1382.1537140229357 C 974.452632455122 -1404.061437293376 991.1449360190633 -1420.738938341594 1017.2319028953737 -1420.738938341594 C 1035.8041259561703 -1420.738938341594 1049.1559951385602 -1414.2751731424325 1058.777630358686 -1397.3509634988266 L 1036.031097863927 -1382.7458146518663 C 1031.022913377554 -1391.7260075239838 1025.6199951385602 -1395.2638087818455 1017.2319028953737 -1395.2638087818455 C 1008.6760488073232 -1395.2638087818455 1003.2533938806985 -1389.836219683313 1003.2533938806985 -1382.7458146518663 C 1003.2533938806985 -1373.9827253436902 1008.680982979231 -1370.4350557420132 1021.2137796249333 -1365.0074666434807 L 1028.5163540484134 -1361.8792016539628 C 1053.3352387444302 -1351.2361928489313 1067.3482869624597 -1340.385948823774 1067.3482869624597 -1315.9914029118243 C 1067.3482869624597 -1289.6922666434805 1046.688909184682 -1275.2844846728306 1018.9440605473652 -1275.2844846728306 C 991.8159833985183 -1275.2844846728306 974.2898047821659 -1288.2120150711535 965.7142140064846 -1305.1559614023904 L 989.4525150547028 -1318.9469718845708 Z  M 886.2641779477842 -1316.4157416958915 C 890.8529578219981 -1308.2743580480926 895.0272672559604 -1301.391188236772 905.0633729163378 -1301.391188236772 C 914.6603372769248 -1301.391188236772 920.7145662077425 -1305.146093058575 920.7145662077425 -1319.7463077336272 L 920.7145662077425 -1419.071188236772 L 949.9248639016628 -1419.071188236772 L 949.9248639016628 -1319.3515739810068 C 949.9248639016628 -1289.1051001864573 932.1914500651848 -1275.3387605638159 906.3067842370924 -1275.3387605638159 C 882.9188093943251 -1275.3387605638159 869.3745075075326 -1287.4422842535432 862.4864035243041 -1302.020295155011 L 886.2641779477842 -1316.4157416958915 Z " fill-rule="evenodd" fill="rgb(255,255,255)" stroke-width="1.5873015873015872" stroke="rgba(0,0,0,0)" stroke-linejoin="miter" stroke-linecap="butt"/></svg>