<?xml version="1.0" standalone="no"?><!-- Generator: Gravit.io --><svg xmlns="http://www.w3.org/2000/svg" xmlns:xlink="http://www.w3.org/1999/xlink" style="isolation:isolate" viewBox="3755.4592424407574 -1159.0455177983692 859.3699999999999 200.385" width="859.3699999999999" height="200.385"><path d=" M 4093.1829924407575 -1112.7055177983693 L 4072.9854924407573 -1039.8080177983693 L 4123.377992440757 -1039.8080177983693 L 4103.186742440757 -1112.7055177983693 L 4093.1829924407575 -1112.7055177983693 L 4093.1829924407575 -1112.7055177983693 Z  M 4045.4829924407572 -992.3006427983693 L 4082.0267424407575 -1125.4030177983693 L 4114.337992440757 -1125.4030177983693 L 4150.889242440758 -992.3006427983693 L 4136.266742440757 -992.3006427983693 L 4126.649242440757 -1026.5418927983692 L 4069.7154924407573 -1026.5418927983692 L 4060.0992424407573 -992.3006427983693 L 4045.4829924407572 -992.3006427983693" fill-rule="evenodd" fill="rgb(255,255,255)" stroke-width="0.125" stroke="rgba(0,0,0,0)" stroke-linejoin="miter" stroke-linecap="butt"/><path d=" M 4244.362992440758 -1056.3557677983692 C 4262.447992440757 -1056.3557677983692 4271.486742440758 -1065.6820177983693 4271.486742440758 -1084.3342677983692 C 4271.486742440758 -1102.9992677983691 4262.376742440758 -1112.3267677983692 4244.174242440758 -1112.3267677983692 L 4209.740492440757 -1112.3267677983692 L 4209.740492440757 -1056.3557677983692 L 4244.362992440758 -1056.3557677983692 L 4244.362992440758 -1056.3557677983692 Z  M 4209.740492440757 -1043.2673927983692 L 4209.740492440757 -992.3006427983693 L 4194.934242440758 -992.3006427983693 L 4194.934242440758 -1125.4030177983693 L 4244.174242440758 -1125.4030177983693 C 4258.279242440757 -1125.4030177983693 4268.889242440758 -1122.1342677983694 4276.005492440758 -1115.5955177983692 C 4283.1204924407575 -1109.0555177983692 4286.680492440757 -1098.8555177983692 4286.680492440757 -1085.0055177983693 C 4286.680492440757 -1064.4915177983692 4278.539242440757 -1051.6048927983693 4262.249242440757 -1046.3460177983693 L 4287.832992440757 -992.3006427983693 L 4271.486742440758 -992.3006427983693 L 4247.442992440758 -1043.2673927983692 L 4209.740492440757 -1043.2673927983692" fill-rule="evenodd" fill="rgb(255,255,255)" stroke-width="0.125" stroke="rgba(0,0,0,0)" stroke-linejoin="miter" stroke-linecap="butt"/><path d=" M 4336.505492440758 -992.3006427983693 L 4336.505492440758 -1125.4030177983693 L 4363.242992440757 -1125.4030177983693 L 4400.937992440758 -1012.8817677983693 L 4438.640492440757 -1125.4030177983693 L 4465.377992440757 -1125.4030177983693 L 4465.377992440757 -992.3006427983693 L 4450.564242440757 -992.3006427983693 L 4450.564242440757 -1109.6280177983692 L 4447.871742440757 -1109.6280177983692 L 4409.211742440757 -997.1053927983693 L 4392.667992440757 -997.1053927983693 L 4354.002992440757 -1109.6280177983692 L 4351.309242440757 -1109.6280177983692 L 4351.309242440757 -992.3006427983693 L 4336.505492440758 -992.3006427983693" fill="rgb(255,255,255)" stroke-width="0.125" stroke="rgba(0,0,0,0)" stroke-linejoin="miter" stroke-linecap="butt"/><path d=" M 4557.122992440757 -1112.7055177983693 L 4536.927992440757 -1039.8080177983693 L 4587.319242440757 -1039.8080177983693 L 4567.1292424407575 -1112.7055177983693 L 4557.122992440757 -1112.7055177983693 L 4557.122992440757 -1112.7055177983693 Z  M 4509.422992440757 -992.3006427983693 L 4545.966742440757 -1125.4030177983693 L 4578.277992440758 -1125.4030177983693 L 4614.829242440757 -992.3006427983693 L 4600.206742440758 -992.3006427983693 L 4590.5892424407575 -1026.5418927983692 L 4533.656742440758 -1026.5418927983692 L 4524.037992440757 -992.3006427983693 L 4509.422992440757 -992.3006427983693" fill-rule="evenodd" fill="rgb(255,255,255)" stroke-width="0.125" stroke="rgba(0,0,0,0)" stroke-linejoin="miter" stroke-linecap="butt"/><path d=" M 3911.346742440757 -1020.8831427983692 L 3953.0554924407575 -958.6605177983693 L 4016.3104924407576 -958.6605177983693 L 3942.2817424407576 -1068.0375177983692 L 3911.346742440757 -1020.8831427983692 Z " fill="rgb(255,255,255)" stroke-width="0.125" stroke="rgba(0,0,0,0)" stroke-linejoin="miter" stroke-linecap="butt"/><path d=" M 3785.5276174407572 -986.3465177983693 L 3814.8244924407572 -1013.9456427983692 L 3861.6643674407574 -958.6605177983693 L 3831.5959924407575 -1069.5593927983693 L 3803.8503674407575 -1028.1966427983693 L 3785.5276174407572 -986.3465177983693 Z " fill="rgb(255,255,255)" stroke-width="0.125" stroke="rgba(0,0,0,0)" stroke-linejoin="miter" stroke-linecap="butt"/><path d=" M 3785.5276174407572 -986.3465177983693 L 3831.5959924407575 -1069.5593927983693 L 3802.3058674407575 -1041.9476427983693 L 3755.4592424407574 -1097.2342677983693 L 3785.5276174407572 -986.3465177983693 Z " fill="rgb(255,255,255)" stroke-width="0.125" stroke="rgba(0,0,0,0)" stroke-linejoin="miter" stroke-linecap="butt"/><path d=" M 4010.2792424407576 -1159.0455177983692 L 3947.0242424407575 -1159.0455177983692 L 3908.2829924407574 -1101.8055177983692 L 3908.2829924407574 -1159.0455177983692 L 3850.2599924407573 -1159.0455177983692 L 3850.2599924407573 -1099.6792677983692 L 3881.1967424407576 -985.6620177983692 L 3888.4067424407576 -958.6605177983693 L 3908.2829924407574 -958.6605177983693 L 3908.2829924407574 -1008.7581427983692 L 4010.2792424407576 -1159.0455177983692 Z " fill="rgb(255,255,255)" stroke-width="0.125" stroke="rgba(0,0,0,0)" stroke-linejoin="miter" stroke-linecap="butt"/></svg>