<?xml version="1.0" standalone="no"?><!-- Generator: Gravit.io --><svg xmlns="http://www.w3.org/2000/svg" xmlns:xlink="http://www.w3.org/1999/xlink" style="isolation:isolate" viewBox="159.3476967056768 -875.5138159740964 648.2155230230815 155.5138159740966" width="648.2155230230815" height="155.5138159740966"><path d=" M 543.9192803823275 -875.5138159740964 L 679.7482854664179 -731.6378228737273 C 679.7482854664179 -731.6378228737273 684.3769494355047 -728.3739564316305 687.9142818013765 -732.1822226293912 C 691.4541462591355 -735.9892227812084 688.7321474808159 -739.7962229330255 688.7321474808159 -739.7962229330255 L 543.9192803823275 -875.5138159740964 Z  M 586.9268610797769 -861.9152164959892 L 690.3653467478077 -750.4044218928115 C 690.3653467478077 -750.4044218928115 694.992744670951 -747.1405554507148 698.5313430827664 -750.9488216484754 C 702.0699414945818 -754.7558218002927 699.3479427162622 -758.5628219521097 699.3479427162622 -758.5628219521097 L 586.9268610797767 -861.9152164959892 L 586.9268610797769 -861.9152164959892 Z  M 556.7126746404294 -832.8138844408943 L 660.1498942625169 -721.3018237917734 C 660.1498942625169 -721.3018237917734 664.7772921856601 -718.0379573496766 668.3158905974756 -721.8462235474371 C 671.854489009291 -725.6544897451978 669.1324902309715 -729.461489897015 669.1324902309715 -729.461489897015 L 556.7126746404294 -832.8138844408943 L 556.7126746404294 -832.8138844408943 Z  M 623.285168482466 -850.2194840708188 L 695.5510709319924 -772.3133469434256 C 695.5510709319924 -772.3133469434256 698.7832862255038 -770.0344642452976 701.2558739529729 -772.6931607264469 C 703.7284616804418 -775.354389299483 701.8255946275049 -778.0143518265759 701.8255946275049 -778.0143518265759 L 623.285168482466 -850.2194840708188 Z  M 566.6663278474754 -799.0889526004864 L 638.9322302970018 -721.1815494271499 C 638.9322302970018 -721.1815494271499 642.1657116364566 -718.9026667290218 644.6370333179822 -721.5613632101712 C 647.1096210454511 -724.2225917832073 645.2080200384576 -726.8825543103001 645.2080200384576 -726.8825543103001 L 566.6663278474755 -799.087686554543 L 566.6663278474754 -799.0889526004864 Z  M 660.4233601862923 -833.3570181506149 L 693.1759687421657 -797.9406489298186 C 693.1759687421657 -797.9406489298186 694.7749847686853 -796.8721061535853 695.9979851500141 -798.1178953618952 C 697.2209855313429 -799.3649506161486 696.2803133953933 -800.612005870402 696.2803133953933 -800.612005870402 L 660.4220941403489 -833.3570181506149 L 660.4233601862923 -833.3570181506149 Z  M 584.7492620571211 -763.1864217374228 L 617.5018706129945 -727.7700525166266 C 617.5018706129945 -727.7700525166266 619.1021526854577 -726.7015097403932 620.3251530667865 -727.9472989487033 C 621.548153448115 -729.1943542029567 620.6074813121656 -730.44140945721 620.6074813121656 -730.44140945721 L 584.7492620571212 -763.1864217374228 L 584.7492620571211 -763.1864217374228 Z " fill-rule="evenodd" fill="rgb(255,255,255)" stroke-width="4.879032258064516" stroke="rgba(0,0,0,0)" stroke-linejoin="miter" stroke-linecap="butt"/><path d=" M 724.2206813203861 -817.2567118883404 L 724.2206813203861 -721.7550682395121 L 745.8282874364702 -721.7550682395121 L 745.8282874364702 -752.5604981344293 L 762.0336755120472 -752.5604981344293 L 782.8689936026542 -721.7550682395121 L 807.5632197287582 -721.7550682395121 L 784.4123036076642 -754.8710319811424 C 784.4123036076642 -754.8710319811424 804.9703576366658 -762.9965148459122 804.9703576366658 -785.035842628697 C 804.9703576366658 -816.1501877338048 776.6957535826141 -817.2541797964535 776.6957535826141 -817.2541797964535 L 724.2206813203863 -817.2567118883404 L 724.2206813203861 -817.2567118883404 Z  M 745.8282874364702 -798.7699090227485 L 745.8282874364702 -771.043502862191 L 773.6091335725941 -771.043502862191 C 773.6091335725941 -771.043502862191 784.2274608999271 -771.0460349540778 784.2274608999271 -784.9092380343566 C 784.2274608999271 -799.2978501811482 771.2935355421073 -798.7699090227485 771.2935355421073 -798.7699090227485 L 745.8282874364702 -798.7699090227485 Z  M 484.9987682222275 -817.2541797964536 L 484.9987682222275 -721.7550682395121 L 557.5368705495858 -721.7550682395121 L 557.5368705495858 -740.2393390132171 L 506.60637433831135 -740.2393390132171 L 506.60637433831135 -760.2605895622152 L 550.5926085500123 -760.2605895622152 L 550.5926085500123 -778.7448603359203 L 506.60637433831135 -778.7448603359203 L 506.60637433831135 -798.7851015740694 L 557.5368705495858 -798.7851015740694 L 557.5368705495858 -817.2541797964536 L 485.00003426817096 -817.2541797964536 L 484.9987682222275 -817.2541797964536 Z  M 380.0498897437152 -817.2541797964536 L 380.0498897437152 -798.7699090227485 L 408.60175785937247 -798.7699090227485 L 408.60175785937247 -721.7550682395121 L 430.2093639754563 -721.7550682395121 L 430.2093639754563 -798.7699090227485 L 458.7612320911136 -798.7699090227485 L 458.7612320911136 -817.2541797964536 L 380.0498897437152 -817.2541797964536 Z  M 281.27425128524294 -817.2541797964536 L 281.27425128524294 -721.7550682395121 L 353.8123536126012 -721.7550682395121 L 353.8123536126012 -740.2393390132171 L 302.88059135538333 -740.2393390132171 L 302.88059135538333 -760.2605895622152 L 346.86682556708433 -760.2605895622152 L 346.86682556708433 -778.7448603359203 L 302.8805913553834 -778.7448603359203 L 302.8805913553834 -798.7851015740694 L 353.8123536126012 -798.7851015740694 L 353.8123536126012 -817.2541797964536 L 281.27425128524294 -817.2541797964536 Z  M 159.3476967056768 -817.2567118883404 L 159.3476967056768 -721.7525361476253 L 180.9401102704398 -721.7538021935686 L 180.9401102704398 -781.8289482540536 L 207.17764640155374 -743.3208948394636 L 233.4291090380451 -781.8289482540536 L 233.4291090380451 -721.7525361476253 L 255.03671515412896 -721.7525361476253 L 255.03671515412896 -817.2567118883404 L 233.42910903804514 -817.2567118883404 L 207.17891244749714 -777.9789025401606 L 180.9401102704398 -817.2567118883404 L 159.3476967056768 -817.2567118883404 Z " fill-rule="evenodd" fill="rgb(255,255,255)" stroke-width="4.879032258064516" stroke="rgba(0,0,0,0)" stroke-linejoin="miter" stroke-linecap="butt"/></svg>