<?xml version="1.0" standalone="no"?><!-- Generator: Gravit.io --><svg xmlns="http://www.w3.org/2000/svg" xmlns:xlink="http://www.w3.org/1999/xlink" style="isolation:isolate" viewBox="159.3476967056768 -1419.071188236772 202.2940908771588 181.87883708883624" width="202.2940908771588" height="181.87883708883624"><path d=" M 159.3476967056768 -1328.4587070138605 C 159.3476967056768 -1313.1811023437956 174.26592186437716 -1298.9196193894916 197.78460758597583 -1290.8804905412467 C 193.0880262283868 -1267.2369760955678 196.94340510141024 -1248.1795258568593 209.81905069220025 -1240.7542044926263 C 223.05328070694028 -1233.1213653132027 242.76985841228867 -1238.4047211827099 261.48383088792315 -1254.7636447365264 C 279.72552143933086 -1239.0654388241787 298.1612133198822 -1232.8876096133329 311.0257276868689 -1240.334398337758 C 324.2480313903911 -1247.9887048773737 328.2687884456353 -1268.3381721646824 323.442607839479 -1292.7203228184535 C 347.9392510809413 -1300.8190832227876 361.6417875828356 -1312.9799452279212 361.6417875828356 -1328.4587070138605 C 361.6417875828356 -1343.381702697048 346.69652945204143 -1356.2915370466626 323.494288521423 -1364.2789852129636 C 328.6901847753327 -1389.6685116209355 324.2877857611172 -1408.2632209843914 310.8786365151821 -1415.9954460906304 C 297.9513102424481 -1423.4501856892007 279.30094475997544 -1416.9527313377164 260.7913097498734 -1400.8442603194746 C 241.53429257011948 -1417.9418200813834 223.06838736781623 -1423.1615689577286 209.6735496953425 -1415.4078764912977 C 196.7581497338263 -1407.9316695325351 193.0729195675109 -1388.5275611810946 197.78460758597583 -1364.4467486574279 C 175.0594191040714 -1356.5237025717033 159.3476967056768 -1343.3212760535441 159.3476967056768 -1328.4587070138605 Z " fill="rgb(0,0,0)" stroke-width="9.765217391304349" stroke="rgba(0,0,0,0)" stroke-linejoin="miter" stroke-linecap="butt"/><path d=" M 318.5806482996691 -1356.347193165679 C 316.3422096285027 -1357.1150210797116 315.07145488921105 -1357.5154293643495 312.797182446427 -1358.1695335197664 C 313.1743661725466 -1359.7021828965426 313.37062490464075 -1360.5684102719151 313.69086070035087 -1362.1139621832165 C 318.0686120047161 -1383.3650585985947 315.2062973124323 -1400.4848808081101 305.4314926382831 -1406.1204604022512 C 296.05979728329714 -1411.5254646461804 280.7321021061173 -1405.8898850520395 265.251750145349 -1392.4187189877714 C 263.4661275246831 -1390.861287147981 262.4832693257033 -1389.9593147197313 260.7785883512411 -1388.313682666588 C 259.63692566979745 -1389.408011218172 258.98319439671184 -1390.0118046856749 257.8017810712662 -1391.063094946009 C 241.57802237791824 -1405.468488722342 225.31609948867356 -1411.5381860448128 215.5516309509131 -1405.8859096149667 C 206.18868155748694 -1400.4657987101616 203.4154166556297 -1384.3708441779668 207.35666496942164 -1364.231279968092 C 207.81568833071856 -1361.8966309213401 208.10743992688083 -1360.5891644868022 208.6844609516754 -1358.2808457578003 C 206.38347797404515 -1357.6272839030617 204.16120865045258 -1356.9307873279392 202.0351449040173 -1356.1897658576036 C 183.01506377379135 -1349.5587368204795 170.86771825470464 -1339.165354137831 170.86771825470464 -1328.3855589717243 C 170.86771825470464 -1317.2511548187404 183.90715185288647 -1306.0833569943463 203.71914004797762 -1299.312392572266 C 205.59967264430168 -1298.6726702871367 206.66705279786734 -1298.3390048054164 208.57712415071467 -1297.7937756105266 C 207.95662984903072 -1295.3070073840524 207.6464600939041 -1293.8973513758235 207.16584398993612 -1291.3798054375675 C 203.40826086889902 -1271.5900796900828 206.34292851590445 -1255.8767671168591 215.6812301994804 -1250.4900498834638 C 225.32643562506235 -1244.9284134188736 241.51441538475638 -1250.6450919292959 257.277818465095 -1264.4239568229843 C 258.52372044365296 -1265.5132265808813 259.7743929466981 -1266.6684885941836 261.02665562457224 -1267.8794067265026 C 262.87299562352985 -1266.0979945004672 263.94032156141276 -1265.1241556904113 265.88304955248054 -1263.4483845653642 C 281.1519082609856 -1250.309565040367 296.23153616483415 -1245.0039467232532 305.5618869742649 -1250.4049755301098 C 315.19834643828705 -1255.9833088304051 318.3294006766797 -1272.8638097281491 314.26332363880766 -1293.4017127327 C 313.9532395471436 -1294.9704202015544 313.5914747735355 -1296.5725213418189 313.1859801921286 -1298.2040407164206 C 314.32295519489696 -1298.5395676053495 315.4384628374731 -1298.8862257180815 316.5269375079555 -1299.247195404275 C 337.1228818937666 -1306.0706355957138 350.52249009072744 -1317.1024734722243 350.52249009072744 -1328.3855589717243 C 350.52249009072744 -1339.2043134211426 337.9839615636953 -1349.6676637962692 318.58064829966906 -1356.347193165679 L 318.5806482996691 -1356.347193165679 Z " fill="rgb(255,255,255)" stroke-width="9.765217391304349" stroke="rgba(0,0,0,0)" stroke-linejoin="miter" stroke-linecap="butt"/><path d=" M 314.11305211746276 -1306.5317862961374 C 313.1311191605265 -1306.2065955435974 312.122948318911 -1305.8925360148608 311.0956953793469 -1305.5880175350983 C 308.82174537381036 -1312.7859438987775 305.7527079537505 -1320.4402504383932 301.99830518237155 -1328.3473947758273 C 305.58176415962794 -1336.0676935708484 308.53153846750934 -1343.623409271063 310.74188147988406 -1350.7752205647 C 312.57932849484735 -1350.2425119969694 314.3635046530376 -1349.6819753697305 316.08248364323697 -1349.0896352459106 C 332.7077614809188 -1343.3673911235865 342.8483063657487 -1334.9052757708153 342.8483063657487 -1328.3855589717243 C 342.8483063657487 -1321.4404704058634 331.8959772306905 -1312.4241791251695 314.11384720487735 -1306.5317862961374 L 314.11305211746276 -1306.5317862961374 Z  M 306.7346409106867 -1291.9109238304688 C 308.53233355492387 -1282.829435381784 308.7891467898149 -1274.618567652002 307.598105842859 -1268.1998269545554 C 306.52791818291064 -1262.4322628496036 304.3764116392107 -1258.587220112969 301.7160491502158 -1257.0471357910374 C 296.0542316713955 -1253.7697854683724 283.9458454356204 -1258.0298638353881 270.8889199143191 -1269.2660391774311 C 269.3917703127717 -1270.5540807889588 267.88348948742106 -1271.9295820160842 266.3712332249978 -1273.3845919846617 C 271.43355479326755 -1278.9215807394019 276.49269601187916 -1285.3586084473825 281.43018885606875 -1292.5064443039466 C 290.1157237723211 -1293.2768840086198 298.3210258902014 -1294.5370975606393 305.7622490027248 -1296.256871638253 C 306.1279892134055 -1294.7780090472397 306.45397505336007 -1293.3285646905638 306.7346409106868 -1291.9109238304688 L 306.7346409106867 -1291.9109238304688 Z  M 232.11568705767667 -1257.6132380301779 C 226.5842639148382 -1255.6597082526941 222.17868455096468 -1255.6040521336777 219.5159367997262 -1257.139365931122 C 213.84855370900425 -1260.4071752048128 211.49350478718628 -1273.0252124732972 214.70645302927488 -1289.9486480914254 C 215.1536917750381 -1292.2897685141306 215.4420125547727 -1293.6006669926574 216.01834726323827 -1295.9133938751788 C 223.3768812846513 -1294.2858499376498 231.5225518464423 -1293.1146861760571 240.22875903547225 -1292.4086485519604 C 245.1988504636573 -1285.414264566399 250.40428776654124 -1278.9851877325639 255.65027452756584 -1273.3551737503244 C 254.3451461997336 -1272.092661374074 253.59310876873855 -1271.4001929939427 252.2274232080432 -1270.2034472391542 C 245.2568918449175 -1264.1098972942477 238.27204890833048 -1259.787802108899 232.1164821450912 -1257.6132380301779 L 232.11568705767667 -1257.6132380301779 Z  M 206.20140295611932 -1306.5747210165216 C 197.44112982290181 -1309.5690202196163 190.20662943815444 -1313.4601780262933 185.24766923377274 -1317.7059448198477 C 180.79199936278425 -1321.5223644095595 178.5419019796834 -1325.3109559397628 178.5419019796834 -1328.3855589717243 C 178.5419019796834 -1334.9267431310075 188.2952392936405 -1343.2711855464293 204.5619327073723 -1348.9425440742239 C 206.95182477427397 -1349.7721359721381 208.31098860005807 -1350.199791093868 210.74532753011982 -1350.8881229775623 C 212.99383473839174 -1343.5757040261917 215.94281395885858 -1335.9301434481358 219.5016252262648 -1328.1987134293113 C 215.89669888881622 -1320.351995735381 212.90558003537964 -1312.5847867829032 210.63640055433018 -1305.186498390764 C 208.89279323787332 -1305.685567694228 207.91837968646928 -1305.9905741590455 206.20140295611947 -1306.5747210165216 L 206.20140295611932 -1306.5747210165216 Z  M 214.8885280472007 -1365.7053720346182 C 211.51179179772032 -1382.961154192017 213.753938306676 -1395.9775302551777 219.39667368754772 -1399.2437493540392 C 225.40753454134375 -1402.7230518799931 238.6974206751004 -1397.7617064133678 252.7052707441716 -1385.3241539879803 C 253.6005391729248 -1384.529066573457 254.49978303875065 -1383.696610050451 255.40061707940552 -1382.8355303805224 C 250.18166329047472 -1377.2309591955477 245.02393123246216 -1370.8503826939984 240.09677452466138 -1363.8965481665778 C 231.64738057052244 -1363.1133870632723 223.5589563025771 -1361.8555587734963 216.12329880195537 -1360.1707685421216 C 215.5871262096292 -1362.318199009113 215.3158197008832 -1363.5344487926864 214.8885280472008 -1365.7061671220324 L 214.8885280472007 -1365.7053720346182 Z  M 292.3833130785415 -1346.5700032292864 C 290.32731113344914 -1350.1214261351186 289.12732378266105 -1352.0949171937573 286.92026745335227 -1355.554491013399 C 292.6528477120649 -1354.8309614661832 298.1445164841772 -1353.86890569461 303.30145345477524 -1352.6913812337011 C 301.7534182586984 -1347.7292406796614 299.8237411036504 -1342.5405002124824 297.5513812729428 -1337.2213654093216 C 295.60772890085667 -1340.9093370443597 294.47266661852234 -1342.9625774006195 292.3833130785416 -1346.5700032292862 L 292.3833130785415 -1346.5700032292864 Z  M 260.78097361348455 -1377.3510173951406 C 264.32070278294225 -1373.516310794895 267.86599756430155 -1369.2339699802726 271.3532509644007 -1364.588274217213 C 263.07579997917014 -1364.9794182954165 258.3972723773344 -1364.9804694137274 250.11964647214205 -1364.5930447417002 C 253.61008022189907 -1369.1958057843754 257.18558832501026 -1373.4717858996817 260.78097361348455 -1377.3510173951406 Z  M 228.97588685772422 -1346.5175274599278 C 226.9127678588569 -1342.9389217757475 225.79872115194618 -1340.8979001748926 223.90481932789487 -1337.2269310212234 C 221.66982860566978 -1342.52777881385 219.7576433737413 -1347.7395768160502 218.19609169161757 -1352.7724801499826 C 223.32202025304917 -1353.9197912891395 228.78824622789674 -1354.8571993508626 234.483457378127 -1355.5688025868608 C 232.25171510832718 -1352.0878642618882 231.04176004550703 -1350.0993947317677 228.9758868577244 -1346.517527459928 L 228.97588685772422 -1346.5175274599278 Z  M 234.64724538551877 -1300.6545001279812 C 228.76359851804648 -1301.3112423323776 223.2146834520885 -1302.200945149229 218.09034506548596 -1303.3164527918052 C 219.6765444574599 -1308.4384059161644 221.63086932235814 -1313.7623112438123 223.91356528945448 -1319.1768565367158 C 225.81544730187426 -1315.5031740275888 226.93440137849188 -1313.4608994313019 229.00689526689075 -1309.8806944861092 C 231.12165609943315 -1306.2286035726854 232.3608189231684 -1304.2016448178751 234.64724538551837 -1300.654500127982 L 234.64724538551877 -1300.6545001279812 Z  M 260.9932619531623 -1278.877850931603 C 257.35573703171826 -1282.8031974971045 253.72775315924852 -1287.1443747804017 250.18404855271825 -1291.813923165897 C 253.62359670794598 -1291.678758305428 257.1307272934082 -1291.610380787779 260.69510417271607 -1291.610380787779 C 264.3572768040103 -1291.610380787779 267.9773098023348 -1291.6922747914748 271.5400965068136 -1291.8512922743796 C 268.04171188291116 -1287.0966695355303 264.50913850018424 -1282.7491315529169 260.9932619531623 -1278.877850931603 Z  M 297.6245293150789 -1319.4527518695552 C 300.0256933069393 -1313.979370107977 302.04998586431554 -1308.684087927252 303.65765261648164 -1303.648799331076 C 298.4482398765251 -1302.4601436463636 292.8245865936019 -1301.5028583992776 286.8988000931599 -1300.7920502506938 C 289.1218469112407 -1304.316276723712 290.33321380725266 -1306.3241038204897 292.41432148770787 -1309.9339653428824 C 294.52984145598475 -1313.6026222320234 295.67435526683175 -1315.6935911536564 297.62452931507914 -1319.4527518695556 L 297.6245293150789 -1319.4527518695552 Z  M 285.7658005274642 -1313.767876855714 C 282.5804289898174 -1308.2343724165498 280.6852798657319 -1305.1766087467847 277.1470529540319 -1299.8617979757018 C 271.8167869270677 -1299.4809511041449 266.30842131925044 -1299.2845645127577 260.69510417271607 -1299.2845645127577 C 255.10484456120287 -1299.2845645127577 249.6664466458636 -1299.4586886565382 244.42920584639876 -1299.7981909825398 C 240.79955050772278 -1305.100131906878 238.86763169379478 -1308.164645341957 235.64905552781804 -1313.7257372227443 C 232.4455323414606 -1319.257308743073 230.75902819382088 -1322.442422281655 227.98441285181363 -1328.201098691555 C 230.75198975931724 -1333.9615394733996 232.43333937293323 -1337.14824892732 235.62599799279687 -1342.684411034511 L 235.62599799279695 -1342.6828208596821 C 238.81763290564226 -1348.2201237569107 240.7343708156341 -1351.2715789071551 244.33697570631386 -1356.550735543797 C 249.67996313191048 -1356.954639950375 255.15811541797592 -1357.166133202638 260.6958992601306 -1357.166133202638 C 266.25833081213545 -1357.166133202638 271.7436388849316 -1356.9530497755459 277.085036135699 -1356.54596501931 C 280.65137711133804 -1351.2746721725262 282.55537762343613 -1348.2346022816653 285.7411528176137 -1342.7249604926524 C 288.9450756780368 -1337.2006228191144 290.6480900093517 -1334.0309636643317 293.48609932248525 -1328.3100256673447 C 290.67743083611157 -1322.5311038581665 288.9793783387853 -1319.3322800682708 285.7665956148789 -1313.7678768557141 L 285.7658005274642 -1313.767876855714 Z  M 301.59837621286636 -1399.4719394420074 C 307.6140075911495 -1396.0021779650278 309.9539498520915 -1382.0110247316616 306.17410428344783 -1363.662792466708 C 305.8840665684519 -1362.2634905241935 305.7066705097024 -1361.4791764534234 305.36629547029224 -1360.0912598006696 C 297.91314604655093 -1361.811033878283 289.8191561667039 -1363.0911246156656 281.34511450271475 -1363.886212030189 C 276.4084167459397 -1370.9155798619893 271.29361940831143 -1377.307287587342 266.15894488532007 -1382.839505817595 C 267.7339945649519 -1384.3579564173856 268.6416980184248 -1385.1905419946088 270.2902190911828 -1386.6288924352127 C 283.55386734026047 -1398.171971519262 295.9500752200929 -1402.7294125793094 301.59837621286636 -1399.4719394420074 L 301.59837621286636 -1399.4719394420074 Z " fill-rule="evenodd" fill="rgb(0,0,0)" stroke-width="9.765217391304349" stroke="rgba(0,0,0,0)" stroke-linejoin="miter" stroke-linecap="butt"/><path d=" M 260.69510417271607 -1344.4280377345606 C 269.5555583201635 -1344.4280377345606 276.7375829355523 -1337.2452180317573 276.7375829355523 -1328.3855589717243 C 276.7375829355523 -1319.525104824277 269.5555583201635 -1312.3422851214737 260.69510417271607 -1312.3422851214737 C 251.83544511268312 -1312.3422851214737 244.6526254098798 -1319.525104824277 244.6526254098798 -1328.3855589717243 C 244.6526254098798 -1337.2452180317573 251.83544511268315 -1344.4280377345606 260.69510417271607 -1344.4280377345606" fill="rgb(255,255,255)" stroke-width="9.765217391304349" stroke="rgba(0,0,0,0)" stroke-linejoin="miter" stroke-linecap="butt"/></svg>