<?xml version="1.0" standalone="no"?><!-- Generator: Gravit.io --><svg xmlns="http://www.w3.org/2000/svg" xmlns:xlink="http://www.w3.org/1999/xlink" style="isolation:isolate" viewBox="143.36580829783094 -1139.6357450758842 582.1268521501015 181.87883708883624" width="582.1268521501015" height="181.87883708883624"><path d=" M 143.36580829783094 -1049.0232638529726 C 143.36580829783094 -1033.7456591829077 158.2840334565313 -1019.4841762286037 181.80271917812996 -1011.4450473803588 C 177.10613782054094 -987.8015329346799 180.96151669356436 -968.7440826959713 193.83716228435438 -961.3187613317384 C 207.0713922990944 -953.6859221523149 226.7879700044428 -958.9692780218221 245.50194248007728 -975.3282015756387 C 263.743633031485 -959.629995663291 282.17932491203635 -953.452166452445 295.043839279023 -960.8989551768701 C 308.2661429825452 -968.5532617164857 312.28690003778945 -988.9027290037947 307.46071943163315 -1013.2848796575656 C 331.9573626730954 -1021.3836400618998 345.65989917498973 -1033.5445020670334 345.65989917498973 -1049.0232638529726 C 345.65989917498973 -1063.9462595361601 330.71464104419556 -1076.8560938857747 307.51240011357714 -1084.8435420520755 C 312.7082963674868 -1110.2330684600477 308.30589735327135 -1128.8277778235035 294.89674810733624 -1136.5600029297425 C 281.9694218346022 -1144.0147425283128 263.31905635212956 -1137.5172881768285 244.80942134202752 -1121.4088171585868 C 225.5524041622736 -1138.5063769204955 207.08649895997036 -1143.7261257968407 193.69166128749663 -1135.9724333304098 C 180.7762613259804 -1128.4962263716473 177.09103115966502 -1109.0921180202067 181.80271917812996 -1085.01130549654 C 159.07753069622552 -1077.0882594108155 143.36580829783094 -1063.8858328926563 143.36580829783094 -1049.0232638529726 Z " fill="rgb(0,0,0)" stroke-width="9.765217391304349" stroke="rgba(0,0,0,0)" stroke-linejoin="miter" stroke-linecap="butt"/><path d=" M 302.59875989182325 -1076.9117500047912 C 300.36032122065683 -1077.6795779188237 299.0895664813652 -1078.0799862034617 296.8152940385811 -1078.7340903588786 C 297.19247776470075 -1080.2667397356547 297.3887364967949 -1081.1329671110273 297.708972292505 -1082.6785190223286 C 302.08672359687023 -1103.9296154377068 299.2244089045864 -1121.0494376472222 289.4496042304372 -1126.6850172413633 C 280.07790887545127 -1132.0900214852925 264.7502136982714 -1126.4544418911516 249.2698617375031 -1112.9832758268835 C 247.48423911683724 -1111.4258439870932 246.50138091785743 -1110.5238715588434 244.79669994339525 -1108.8782395057 C 243.65503726195158 -1109.9725680572842 243.00130598886597 -1110.576361524787 241.81989266342035 -1111.627651785121 C 225.59613397007237 -1126.0330455614542 209.33421108082769 -1132.102742883925 199.56974254306724 -1126.4504664540789 C 190.20679314964107 -1121.0303555492737 187.43352824778384 -1104.935401017079 191.37477656157577 -1084.795836807204 C 191.83379992287269 -1082.4611877604523 192.12555151903496 -1081.1537213259144 192.70257254382952 -1078.8454025969124 C 190.40158956619928 -1078.1918407421738 188.1793202426067 -1077.4953441670514 186.05325649617143 -1076.7543226967157 C 167.03317536594548 -1070.1232936595916 154.88582984685877 -1059.729910976943 154.88582984685877 -1048.9501158108365 C 154.88582984685877 -1037.8157116578525 167.9252634450406 -1026.6479138334585 187.73725164013175 -1019.8769494113782 C 189.6177842364558 -1019.2372271262489 190.68516439002147 -1018.9035616445286 192.5952357428688 -1018.3583324496387 C 191.97474144118485 -1015.8715642231647 191.66457168605822 -1014.4619082149356 191.18395558209025 -1011.9443622766796 C 187.42637246105315 -992.1546365291948 190.36104010805857 -976.4413239559713 199.69934179163454 -971.054606722576 C 209.34454721721647 -965.4929702579856 225.5325269769105 -971.209648768408 241.2959300572491 -984.9885136620965 C 242.5418320358071 -986.0777834199935 243.7925045388522 -987.2330454332957 245.04476721672637 -988.4439635656147 C 246.891107215684 -986.6625513395792 247.9584331535669 -985.6887125295234 249.90116114463467 -984.0129414044764 C 265.1700198531397 -970.8741218794792 280.2496477569883 -965.5685035623653 289.579998566419 -970.969532369222 C 299.2164580304412 -976.5478656695174 302.34751226883384 -993.4283665672612 298.2814352309618 -1013.9662695718121 C 297.9713511392977 -1015.5349770406665 297.6095863656896 -1017.1370781809309 297.20409178428275 -1018.7685975555327 C 298.3410667870511 -1019.1041244444615 299.4565744296272 -1019.4507825571936 300.5450491001096 -1019.8117522433872 C 321.1409934859207 -1026.635192434826 334.5406016828816 -1037.6670303113365 334.5406016828816 -1048.9501158108365 C 334.5406016828816 -1059.7688702602547 322.0020731558494 -1070.2322206353813 302.5987598918232 -1076.9117500047912 L 302.59875989182325 -1076.9117500047912 Z " fill="rgb(255,255,255)" stroke-width="9.765217391304349" stroke="rgba(0,0,0,0)" stroke-linejoin="miter" stroke-linecap="butt"/><path d=" M 298.1311637096169 -1027.0963431352495 C 297.14923075268064 -1026.7711523827095 296.14105991106516 -1026.4570928539729 295.11380697150105 -1026.1525743742104 C 292.8398569659645 -1033.3505007378897 289.7708195459046 -1041.0048072775053 286.0164167745257 -1048.9119516149394 C 289.59987575178206 -1056.6322504099605 292.54965005966346 -1064.1879661101752 294.7599930720382 -1071.3397774038121 C 296.5974400870015 -1070.8070688360815 298.3816162451917 -1070.2465322088426 300.1005952353911 -1069.6541920850227 C 316.72587307307293 -1063.9319479626986 326.86641795790285 -1055.4698326099274 326.86641795790285 -1048.9501158108365 C 326.86641795790285 -1042.0050272449755 315.91408882284463 -1032.9887359642817 298.1319587970315 -1027.0963431352495 L 298.1311637096169 -1027.0963431352495 Z  M 290.75275250284085 -1012.4754806695809 C 292.550445147078 -1003.3939922208959 292.807258381969 -995.1831244911141 291.61621743501314 -988.7643837936675 C 290.54602977506477 -982.9968196887157 288.3945232313648 -979.151776952081 285.7341607423699 -977.6116926301495 C 280.0723432635496 -974.3343423074846 267.96395702777454 -978.5944206745003 254.9070315064732 -989.8305960165433 C 253.40988190492584 -991.118637628071 251.9016010795752 -992.4941388551963 250.38934481715194 -993.9491488237738 C 255.45166638542167 -999.486137578514 260.5108076040333 -1005.9231652864945 265.4483004482229 -1013.0710011430589 C 274.1338353644752 -1013.841440847732 282.3391374823555 -1015.1016543997513 289.7803605948789 -1016.8214284773652 C 290.1461008055596 -1015.3425658863518 290.4720866455142 -1013.8931215296759 290.7527525028409 -1012.475480669581 L 290.75275250284085 -1012.4754806695809 Z  M 216.1337986498308 -978.1777948692901 C 210.60237550699233 -976.2242650918064 206.1967961431188 -976.1686089727898 203.53404839188033 -977.7039227702342 C 197.86666530115838 -980.9717320439249 195.5116163793404 -993.5897693124093 198.724564621429 -1010.5132049305374 C 199.17180336719224 -1012.8543253532428 199.46012414692683 -1014.1652238317694 200.0364588553924 -1016.477950714291 C 207.39499287680542 -1014.8504067767619 215.54066343859643 -1013.6792430151692 224.24687062762638 -1012.9732053910725 C 229.21696205581142 -1005.9788214055112 234.42239935869537 -999.5497445716759 239.66838611971997 -993.9197305894365 C 238.36325779188772 -992.657218213186 237.61122036089267 -991.9647498330548 236.24553480019733 -990.7680040782664 C 229.27500343707163 -984.6744541333599 222.2901605004846 -980.3523589480112 216.13459373724532 -978.1777948692901 L 216.1337986498308 -978.1777948692901 Z  M 190.21951454827345 -1027.1392778556337 C 181.45924141505594 -1030.1335770587284 174.22474103030856 -1034.0247348654054 169.26578082592687 -1038.2705016589598 C 164.81011095493838 -1042.0869212486716 162.56001357183752 -1045.875512778875 162.56001357183752 -1048.9501158108365 C 162.56001357183752 -1055.4912999701196 172.31335088579462 -1063.8357423855414 188.58004429952643 -1069.507100913336 C 190.9699363664281 -1070.3366928112503 192.3291001922122 -1070.7643479329802 194.76343912227395 -1071.4526798166744 C 197.01194633054587 -1064.1402608653038 199.9609255510127 -1056.494700287248 203.51973681841892 -1048.7632702684236 C 199.91481048097035 -1040.9165525744932 196.92369162753377 -1033.1493436220153 194.6545121464843 -1025.751055229876 C 192.91090483002745 -1026.25012453334 191.9364912786234 -1026.5551309981577 190.2195145482736 -1027.1392778556337 L 190.21951454827345 -1027.1392778556337 Z  M 198.90663963935484 -1086.2699288737304 C 195.52990338987445 -1103.525711031129 197.77204989883012 -1116.5420870942899 203.41478527970185 -1119.8083061931513 C 209.42564613349788 -1123.2876087191053 222.71553226725453 -1118.32626325248 236.72338233632573 -1105.8887108270924 C 237.61865076507894 -1105.093623412569 238.51789463090478 -1104.2611668895631 239.41872867155965 -1103.4000872196345 C 234.19977488262884 -1097.7955160346598 229.0420428246163 -1091.4149395331106 224.1148861168155 -1084.46110500569 C 215.66549216267657 -1083.6779439023844 207.57706789473121 -1082.4201156126087 200.1414103941095 -1080.7353253812337 C 199.60523780178332 -1082.882755848225 199.33393129303732 -1084.0990056317985 198.90663963935492 -1086.2707239611445 L 198.90663963935484 -1086.2699288737304 Z  M 276.40142467069563 -1067.1345600683985 C 274.34542272560327 -1070.6859829742307 273.1454353748152 -1072.6594740328694 270.9383790455064 -1076.1190478525111 C 276.670959304219 -1075.3955183052954 282.1626280763313 -1074.4334625337221 287.31956504692937 -1073.2559380728133 C 285.7715298508525 -1068.2937975187733 283.8418526958045 -1063.1050570515945 281.56949286509695 -1057.7859222484337 C 279.6258404930108 -1061.4738938834719 278.49077821067647 -1063.5271342397316 276.40142467069575 -1067.1345600683985 L 276.40142467069563 -1067.1345600683985 Z  M 244.7990852056387 -1097.9155742342527 C 248.33881437509635 -1094.080867634007 251.88410915645568 -1089.7985268193847 255.3713625565548 -1085.152831056325 C 247.0939115713243 -1085.5439751345286 242.41538396948852 -1085.5450262528395 234.13775806429618 -1085.1576015808123 C 237.6281918140532 -1089.7603626234875 241.2036999171644 -1094.0363427387938 244.7990852056387 -1097.9155742342527 Z  M 212.99399844987835 -1067.08208429904 C 210.93087945101104 -1063.5034786148597 209.8168327441003 -1061.4624570140047 207.922930920049 -1057.7914878603356 C 205.6879401978239 -1063.0923356529622 203.77575496589543 -1068.3041336551623 202.2142032837717 -1073.3370369890945 C 207.3401318452033 -1074.4843481282517 212.80635782005086 -1075.4217561899745 218.50156897028114 -1076.133359425973 C 216.2698267004813 -1072.6524211010003 215.05987163766116 -1070.6639515708798 212.99399844987852 -1067.0820842990402 L 212.99399844987835 -1067.08208429904 Z  M 218.6653569776729 -1021.2190569670935 C 212.7817101102006 -1021.8757991714897 207.23279504424264 -1022.7655019883413 202.1084566576401 -1023.8810096309174 C 203.69465604961403 -1029.0029627552765 205.64898091451226 -1034.3268680829242 207.9316768816086 -1039.741413375828 C 209.83355889402839 -1036.067730866701 210.952512970646 -1034.025456270414 213.02500685904488 -1030.4452513252213 C 215.13976769158728 -1026.7931604117975 216.37893051532254 -1024.7662016569873 218.6653569776725 -1021.2190569670942 L 218.6653569776729 -1021.2190569670935 Z  M 245.01137354531642 -999.4424077707152 C 241.3738486238724 -1003.3677543362166 237.74586475140265 -1007.7089316195138 234.20216014487238 -1012.3784800050091 C 237.6417083001001 -1012.2433151445401 241.1488388855623 -1012.174937626891 244.7132157648702 -1012.174937626891 C 248.37538839616442 -1012.174937626891 251.99542139448891 -1012.256831630587 255.55820809896773 -1012.4158491134916 C 252.0598234750653 -1007.6612263746424 248.52725009233836 -1003.3136883920291 245.01137354531642 -999.4424077707152 Z  M 281.64264090723304 -1040.0173087086673 C 284.0438048990934 -1034.5439269470892 286.0680974564697 -1029.2486447663641 287.67576420863577 -1024.213356170188 C 282.46635146867925 -1023.0247004854758 276.84269818575603 -1022.0674152383898 270.916911685314 -1021.356607089806 C 273.13995850339484 -1024.8808335628241 274.3513253994068 -1026.8886606596018 276.432433079862 -1030.4985221819945 C 278.5479530481389 -1034.1671790711355 279.6924668589859 -1036.2581479927685 281.6426409072333 -1040.0173087086678 L 281.64264090723304 -1040.0173087086673 Z  M 269.7839121196183 -1034.332433694826 C 266.5985405819715 -1028.798929255662 264.703391457886 -1025.7411655858969 261.165164546186 -1020.4263548148139 C 255.83489851922184 -1020.045507943257 250.32653291140457 -1019.8491213518698 244.7132157648702 -1019.8491213518698 C 239.122956153357 -1019.8491213518698 233.68455823801773 -1020.0232454956504 228.4473174385529 -1020.3627478216519 C 224.8176620998769 -1025.6646887459901 222.8857432859489 -1028.729202181069 219.66716711997216 -1034.2902940618565 C 216.46364393361472 -1039.8218655821852 214.777139785975 -1043.006979120767 212.00252444396776 -1048.7656555306671 C 214.77010135147137 -1054.5260963125118 216.45145096508736 -1057.7128057664322 219.644109584951 -1063.248967873623 L 219.64410958495108 -1063.2473776987943 C 222.83574449779638 -1068.7846805960228 224.75248240778822 -1071.8361357462672 228.355087298468 -1077.115292382909 C 233.6980747240646 -1077.519196789487 239.17622701013005 -1077.7306900417502 244.71401085228473 -1077.7306900417502 C 250.27644240428958 -1077.7306900417502 255.76175047708574 -1077.517606614658 261.1031477278531 -1077.110521858422 C 264.66948870349216 -1071.8392290116383 266.57348921559026 -1068.7991591207774 269.7592644097678 -1063.2895173317645 C 272.96318727019093 -1057.7651796582265 274.6662016015058 -1054.5955205034438 277.5042109146394 -1048.8745825064568 C 274.6955424282657 -1043.0956606972786 272.9974899309394 -1039.896836907383 269.784707207033 -1034.3324336948262 L 269.7839121196183 -1034.332433694826 Z  M 285.6164878050205 -1120.0364962811195 C 291.63211918330364 -1116.56673480414 293.97206144424564 -1102.575581570774 290.19221587560196 -1084.22734930582 C 289.902178160606 -1082.8280473633058 289.72478210185653 -1082.0437332925355 289.38440706244637 -1080.6558166397817 C 281.93125763870506 -1082.3755907173952 273.83726775885805 -1083.6556814547778 265.3632260948689 -1084.450768869301 C 260.4265283380938 -1091.4801367011014 255.31173100046556 -1097.8718444264541 250.1770564774742 -1103.404062656707 C 251.752106157106 -1104.9225132564977 252.65980961057892 -1105.755098833721 254.30833068333692 -1107.1934492743248 C 267.5719789324146 -1118.736528358374 279.96818681224704 -1123.2939694184215 285.6164878050205 -1120.0364962811195 L 285.6164878050205 -1120.0364962811195 Z " fill-rule="evenodd" fill="rgb(0,0,0)" stroke-width="9.765217391304349" stroke="rgba(0,0,0,0)" stroke-linejoin="miter" stroke-linecap="butt"/><path d=" M 244.7132157648702 -1064.9925945736727 C 253.57366991231765 -1064.9925945736727 260.75569452770645 -1057.8097748708694 260.75569452770645 -1048.9501158108365 C 260.75569452770645 -1040.089661663389 253.57366991231765 -1032.9068419605858 244.7132157648702 -1032.9068419605858 C 235.85355670483725 -1032.9068419605858 228.67073700203392 -1040.089661663389 228.67073700203392 -1048.9501158108365 C 228.67073700203392 -1057.8097748708694 235.85355670483727 -1064.9925945736727 244.7132157648702 -1064.9925945736727" fill="rgb(255,255,255)" stroke-width="9.765217391304349" stroke="rgba(0,0,0,0)" stroke-linejoin="miter" stroke-linecap="butt"/><path d=" M 363.08641044793234 -1042.868201531466 L 363.08641044793234 -1023.868201531466 L 357.77391044793234 -1023.868201531466 L 357.77391044793234 -1069.555701531466 L 370.30516044793234 -1069.555701531466 Q 378.71141044793234 -1069.555701531466 382.72703544793234 -1066.336951531466 Q 386.74266044793234 -1063.118201531466 386.74266044793234 -1056.649451531466 Q 386.74266044793234 -1047.586951531466 377.55516044793234 -1044.399451531466 L 389.96141044793234 -1023.868201531466 L 383.68016044793234 -1023.868201531466 L 372.61766044793234 -1042.868201531466 L 363.08641044793234 -1042.868201531466 Z  M 363.08641044793234 -1047.430701531466 L 370.36766044793234 -1047.430701531466 Q 375.99266044793234 -1047.430701531466 378.61766044793234 -1049.665076531466 Q 381.24266044793234 -1051.899451531466 381.24266044793234 -1056.368201531466 Q 381.24266044793234 -1060.899451531466 378.57078544793234 -1062.899451531466 Q 375.89891044793234 -1064.899451531466 369.99266044793234 -1064.899451531466 L 363.08641044793234 -1064.899451531466 L 363.08641044793234 -1047.430701531466 Z  M 411.02391044793234 -1023.243201531466 Q 403.43016044793234 -1023.243201531466 399.03953544793234 -1027.868201531466 Q 394.64891044793234 -1032.493201531466 394.64891044793234 -1040.711951531466 Q 394.64891044793234 -1048.993201531466 398.72703544793234 -1053.868201531466 Q 402.80516044793234 -1058.743201531466 409.68016044793234 -1058.743201531466 Q 416.11766044793234 -1058.743201531466 419.86766044793234 -1054.508826531466 Q 423.61766044793234 -1050.274451531466 423.61766044793234 -1043.336951531466 L 423.61766044793234 -1040.055701531466 L 400.02391044793234 -1040.055701531466 Q 400.18016044793234 -1034.024451531466 403.07078544793234 -1030.899451531466 Q 405.96141044793234 -1027.774451531466 411.21141044793234 -1027.774451531466 Q 416.74266044793234 -1027.774451531466 422.14891044793234 -1030.086951531466 L 422.14891044793234 -1025.461951531466 Q 419.39891044793234 -1024.274451531466 416.94578544793234 -1023.758826531466 Q 414.49266044793234 -1023.243201531466 411.02391044793234 -1023.243201531466 Z  M 409.61766044793234 -1054.399451531466 Q 405.49266044793234 -1054.399451531466 403.03953544793234 -1051.711951531466 Q 400.58641044793234 -1049.024451531466 400.14891044793234 -1044.274451531466 L 418.05516044793234 -1044.274451531466 Q 418.05516044793234 -1049.180701531466 415.86766044793234 -1051.790076531466 Q 413.68016044793234 -1054.399451531466 409.61766044793234 -1054.399451531466 Z  M 453.52391044793234 -1023.868201531466 L 452.49266044793234 -1028.743201531466 L 452.24266044793234 -1028.743201531466 Q 449.68016044793234 -1025.524451531466 447.13328544793234 -1024.383826531466 Q 444.58641044793234 -1023.243201531466 440.77391044793234 -1023.243201531466 Q 435.68016044793234 -1023.243201531466 432.78953544793234 -1025.868201531466 Q 429.89891044793234 -1028.493201531466 429.89891044793234 -1033.336951531466 Q 429.89891044793234 -1043.711951531466 446.49266044793234 -1044.211951531466 L 452.30516044793234 -1044.399451531466 L 452.30516044793234 -1046.524451531466 Q 452.30516044793234 -1050.555701531466 450.57078544793234 -1052.477576531466 Q 448.83641044793234 -1054.399451531466 445.02391044793234 -1054.399451531466 Q 440.74266044793234 -1054.399451531466 435.33641044793234 -1051.774451531466 L 433.74266044793234 -1055.743201531466 Q 436.27391044793234 -1057.118201531466 439.28953544793234 -1057.899451531466 Q 442.30516044793234 -1058.680701531466 445.33641044793234 -1058.680701531466 Q 451.46141044793234 -1058.680701531466 454.41453544793234 -1055.961951531466 Q 457.36766044793234 -1053.243201531466 457.36766044793234 -1047.243201531466 L 457.36766044793234 -1023.868201531466 L 453.52391044793234 -1023.868201531466 Z  M 441.80516044793234 -1027.524451531466 Q 446.64891044793234 -1027.524451531466 449.41453544793234 -1030.180701531466 Q 452.18016044793234 -1032.836951531466 452.18016044793234 -1037.618201531466 L 452.18016044793234 -1040.711951531466 L 446.99266044793234 -1040.493201531466 Q 440.80516044793234 -1040.274451531466 438.07078544793234 -1038.571326531466 Q 435.33641044793234 -1036.868201531466 435.33641044793234 -1033.274451531466 Q 435.33641044793234 -1030.461951531466 437.03953544793234 -1028.993201531466 Q 438.74266044793234 -1027.524451531466 441.80516044793234 -1027.524451531466 Z  M 481.74266044793234 -1023.243201531466 Q 474.30516044793234 -1023.243201531466 470.22703544793234 -1027.821326531466 Q 466.14891044793234 -1032.399451531466 466.14891044793234 -1040.774451531466 Q 466.14891044793234 -1049.368201531466 470.28953544793234 -1054.055701531466 Q 474.43016044793234 -1058.743201531466 482.08641044793234 -1058.743201531466 Q 484.55516044793234 -1058.743201531466 487.02391044793234 -1058.211951531466 Q 489.49266044793234 -1057.680701531466 490.89891044793234 -1056.961951531466 L 489.30516044793234 -1052.555701531466 Q 487.58641044793234 -1053.243201531466 485.55516044793234 -1053.696326531466 Q 483.52391044793234 -1054.149451531466 481.96141044793234 -1054.149451531466 Q 471.52391044793234 -1054.149451531466 471.52391044793234 -1040.836951531466 Q 471.52391044793234 -1034.524451531466 474.07078544793234 -1031.149451531466 Q 476.61766044793234 -1027.774451531466 481.61766044793234 -1027.774451531466 Q 485.89891044793234 -1027.774451531466 490.39891044793234 -1029.618201531466 L 490.39891044793234 -1025.024451531466 Q 486.96141044793234 -1023.243201531466 481.74266044793234 -1023.243201531466 Z  M 509.58641044793234 -1027.524451531466 Q 510.96141044793234 -1027.524451531466 512.2426604479324 -1027.727576531466 Q 513.5239104479324 -1027.930701531466 514.2739104479324 -1028.149451531466 L 514.2739104479324 -1024.180701531466 Q 513.4301604479324 -1023.774451531466 511.78953544793234 -1023.508826531466 Q 510.14891044793234 -1023.243201531466 508.83641044793234 -1023.243201531466 Q 498.89891044793234 -1023.243201531466 498.89891044793234 -1033.711951531466 L 498.89891044793234 -1054.086951531466 L 493.99266044793234 -1054.086951531466 L 493.99266044793234 -1056.586951531466 L 498.89891044793234 -1058.743201531466 L 501.08641044793234 -1066.055701531466 L 504.08641044793234 -1066.055701531466 L 504.08641044793234 -1058.118201531466 L 514.0239104479324 -1058.118201531466 L 514.0239104479324 -1054.086951531466 L 504.08641044793234 -1054.086951531466 L 504.08641044793234 -1033.930701531466 Q 504.08641044793234 -1030.836951531466 505.55516044793234 -1029.180701531466 Q 507.02391044793234 -1027.524451531466 509.58641044793234 -1027.524451531466 Z  M 574.2114104479324 -1023.868201531466 L 568.1489104479324 -1023.868201531466 L 543.1801604479324 -1062.211951531466 L 542.9301604479324 -1062.211951531466 Q 543.4301604479324 -1055.461951531466 543.4301604479324 -1049.836951531466 L 543.4301604479324 -1023.868201531466 L 538.5239104479324 -1023.868201531466 L 538.5239104479324 -1069.555701531466 L 544.5239104479324 -1069.555701531466 L 569.4301604479324 -1031.368201531466 L 569.6801604479324 -1031.368201531466 Q 569.6176604479324 -1032.211951531466 569.3989104479324 -1036.790076531466 Q 569.1801604479324 -1041.368201531466 569.2426604479324 -1043.336951531466 L 569.2426604479324 -1069.555701531466 L 574.2114104479324 -1069.555701531466 L 574.2114104479324 -1023.868201531466 Z  M 607.0551604479324 -1023.868201531466 L 606.0239104479324 -1028.743201531466 L 605.7739104479324 -1028.743201531466 Q 603.2114104479324 -1025.524451531466 600.6645354479324 -1024.383826531466 Q 598.1176604479324 -1023.243201531466 594.3051604479324 -1023.243201531466 Q 589.2114104479324 -1023.243201531466 586.3207854479324 -1025.868201531466 Q 583.4301604479324 -1028.493201531466 583.4301604479324 -1033.336951531466 Q 583.4301604479324 -1043.711951531466 600.0239104479324 -1044.211951531466 L 605.8364104479324 -1044.399451531466 L 605.8364104479324 -1046.524451531466 Q 605.8364104479324 -1050.555701531466 604.1020354479324 -1052.477576531466 Q 602.3676604479324 -1054.399451531466 598.5551604479324 -1054.399451531466 Q 594.2739104479324 -1054.399451531466 588.8676604479324 -1051.774451531466 L 587.2739104479324 -1055.743201531466 Q 589.8051604479324 -1057.118201531466 592.8207854479324 -1057.899451531466 Q 595.8364104479324 -1058.680701531466 598.8676604479324 -1058.680701531466 Q 604.9926604479324 -1058.680701531466 607.9457854479324 -1055.961951531466 Q 610.8989104479324 -1053.243201531466 610.8989104479324 -1047.243201531466 L 610.8989104479324 -1023.868201531466 L 607.0551604479324 -1023.868201531466 Z  M 595.3364104479324 -1027.524451531466 Q 600.1801604479324 -1027.524451531466 602.9457854479324 -1030.180701531466 Q 605.7114104479324 -1032.836951531466 605.7114104479324 -1037.618201531466 L 605.7114104479324 -1040.711951531466 L 600.5239104479324 -1040.493201531466 Q 594.3364104479324 -1040.274451531466 591.6020354479324 -1038.571326531466 Q 588.8676604479324 -1036.868201531466 588.8676604479324 -1033.274451531466 Q 588.8676604479324 -1030.461951531466 590.5707854479324 -1028.993201531466 Q 592.2739104479324 -1027.524451531466 595.3364104479324 -1027.524451531466 Z  M 632.6489104479324 -1027.524451531466 Q 634.0239104479324 -1027.524451531466 635.3051604479324 -1027.727576531466 Q 636.5864104479324 -1027.930701531466 637.3364104479324 -1028.149451531466 L 637.3364104479324 -1024.180701531466 Q 636.4926604479324 -1023.774451531466 634.8520354479324 -1023.508826531466 Q 633.2114104479324 -1023.243201531466 631.8989104479324 -1023.243201531466 Q 621.9614104479324 -1023.243201531466 621.9614104479324 -1033.711951531466 L 621.9614104479324 -1054.086951531466 L 617.0551604479324 -1054.086951531466 L 617.0551604479324 -1056.586951531466 L 621.9614104479324 -1058.743201531466 L 624.1489104479324 -1066.055701531466 L 627.1489104479324 -1066.055701531466 L 627.1489104479324 -1058.118201531466 L 637.0864104479324 -1058.118201531466 L 637.0864104479324 -1054.086951531466 L 627.1489104479324 -1054.086951531466 L 627.1489104479324 -1033.930701531466 Q 627.1489104479324 -1030.836951531466 628.6176604479324 -1029.180701531466 Q 630.0864104479324 -1027.524451531466 632.6489104479324 -1027.524451531466 Z  M 649.3676604479324 -1023.868201531466 L 644.1801604479324 -1023.868201531466 L 644.1801604479324 -1058.118201531466 L 649.3676604479324 -1058.118201531466 L 649.3676604479324 -1023.868201531466 Z  M 643.7426604479324 -1067.399451531466 Q 643.7426604479324 -1069.180701531466 644.6176604479324 -1070.008826531466 Q 645.4926604479324 -1070.836951531466 646.8051604479324 -1070.836951531466 Q 648.0551604479324 -1070.836951531466 648.9614104479324 -1069.993201531466 Q 649.8676604479324 -1069.149451531466 649.8676604479324 -1067.399451531466 Q 649.8676604479324 -1065.649451531466 648.9614104479324 -1064.790076531466 Q 648.0551604479324 -1063.930701531466 646.8051604479324 -1063.930701531466 Q 645.4926604479324 -1063.930701531466 644.6176604479324 -1064.790076531466 Q 643.7426604479324 -1065.649451531466 643.7426604479324 -1067.399451531466 Z  M 667.8676604479324 -1023.868201531466 L 654.8676604479324 -1058.118201531466 L 660.4301604479324 -1058.118201531466 L 667.8051604479324 -1037.805701531466 Q 670.3051604479324 -1030.680701531466 670.7426604479324 -1028.555701531466 L 670.9926604479324 -1028.555701531466 Q 671.3364104479324 -1030.211951531466 673.1645354479324 -1035.415076531466 Q 674.9926604479324 -1040.618201531466 681.3676604479324 -1058.118201531466 L 686.9301604479324 -1058.118201531466 L 673.9301604479324 -1023.868201531466 L 667.8676604479324 -1023.868201531466 Z  M 706.8989104479324 -1023.243201531466 Q 699.3051604479324 -1023.243201531466 694.9145354479324 -1027.868201531466 Q 690.5239104479324 -1032.493201531466 690.5239104479324 -1040.711951531466 Q 690.5239104479324 -1048.993201531466 694.6020354479324 -1053.868201531466 Q 698.6801604479324 -1058.743201531466 705.5551604479324 -1058.743201531466 Q 711.9926604479324 -1058.743201531466 715.7426604479324 -1054.508826531466 Q 719.4926604479324 -1050.274451531466 719.4926604479324 -1043.336951531466 L 719.4926604479324 -1040.055701531466 L 695.8989104479324 -1040.055701531466 Q 696.0551604479324 -1034.024451531466 698.9457854479324 -1030.899451531466 Q 701.8364104479324 -1027.774451531466 707.0864104479324 -1027.774451531466 Q 712.6176604479324 -1027.774451531466 718.0239104479324 -1030.086951531466 L 718.0239104479324 -1025.461951531466 Q 715.2739104479324 -1024.274451531466 712.8207854479324 -1023.758826531466 Q 710.3676604479324 -1023.243201531466 706.8989104479324 -1023.243201531466 Z  M 705.4926604479324 -1054.399451531466 Q 701.3676604479324 -1054.399451531466 698.9145354479324 -1051.711951531466 Q 696.4614104479324 -1049.024451531466 696.0239104479324 -1044.274451531466 L 713.9301604479324 -1044.274451531466 Q 713.9301604479324 -1049.180701531466 711.7426604479324 -1051.790076531466 Q 709.5551604479324 -1054.399451531466 705.4926604479324 -1054.399451531466 Z " fill-rule="evenodd" fill="rgb(255,255,255)" stroke-width="1" stroke="rgba(0,0,0,0)" stroke-linejoin="miter" stroke-linecap="square"/></svg>