<?xml version="1.0" standalone="no"?><!-- Generator: Gravit.io --><svg xmlns="http://www.w3.org/2000/svg" xmlns:xlink="http://www.w3.org/1999/xlink" style="isolation:isolate" viewBox="-694.6731956699741 -471.988922017609 349.34639133994835 261.988922017609" width="349.34639133994835" height="261.988922017609"><path d=" M -393.8585921282138 -321.38172656250174 C -406.04620217767115 -321.31791708580295 -416.6385753096603 -318.3826811576614 -425.5080925707838 -314.0436367421478 C -428.762375882419 -320.4883938887195 -432.0166591940542 -326.23124679160514 -432.5909444843428 -330.4426722537213 C -433.2290392513301 -335.3560019595235 -433.99475297171483 -338.3550473643638 -433.2290392513301 -344.22551922064696 C -432.4633255309453 -350.0959910769301 -429.0176137892139 -358.4550325244637 -429.08142326591263 -359.093127291451 C -429.14523274261137 -359.73122205843833 -429.8471369862974 -362.7302674632786 -436.8661794231577 -362.79407693997734 C -443.88522186001796 -362.8578864166761 -449.9471221463973 -361.45407792930405 -450.64902639008335 -359.60360310504086 C -451.3509306337694 -357.7531282807777 -452.6909296444427 -353.5417028186615 -453.5842623182249 -349.2026584031479 C -454.79664237550077 -342.8217107332749 -467.6223471919455 -320.04172755182833 -474.9604370122994 -308.1093554091659 C -477.3213876501524 -312.76744720817317 -479.36329090451176 -316.85125371689185 -479.8099572414029 -320.1055370285271 C -480.44805200839016 -325.0188667343293 -481.21376572877494 -328.01791213916965 -480.44805200839016 -333.8883839954527 C -479.68233828800544 -339.7588558517359 -476.236626546274 -348.1178972992695 -476.30043602297275 -348.7559920662568 C -476.3642454996715 -349.3940868332441 -477.0661497433575 -352.3931322380844 -484.08519218021775 -352.45694171478317 C -491.1042346170781 -352.52075119148185 -497.1661349034574 -351.1169427041098 -497.86803914714346 -349.26646787984663 C -498.5699433908295 -347.4159930555835 -499.33565711121423 -343.0769486400699 -500.803275075285 -338.8655231779537 C -502.2708930393558 -334.6540977158375 -519.3080233179166 -296.62364960339454 -523.7746866868277 -286.7969901917902 C -526.071827847982 -281.75604153259053 -528.0499216256426 -277.73604450057053 -529.4537301130147 -274.99223700252514 C -529.4537301130147 -274.99223700252514 -529.4537301130147 -274.99223700252514 -529.4537301130147 -274.99223700252514 C -529.4537301130147 -274.99223700252514 -529.5175395897135 -274.800808572429 -529.7089680198096 -274.4817611889353 C -530.9213480770854 -272.1208105510823 -531.6232523207715 -270.84462101710767 -531.6232523207715 -270.84462101710767 C -531.6232523207715 -270.84462101710767 -531.6232523207715 -270.84462101710767 -531.6232523207715 -270.780811540409 C -532.5803944712525 -269.0579556695433 -533.6013460984321 -267.46271875207503 -534.1118219120219 -267.46271875207503 C -534.4946787722143 -267.46271875207503 -535.1965830159004 -272.05700107438355 -533.9842029586246 -278.3103297908591 C -531.4318238906753 -291.51889146749613 -525.369923604296 -312.0655429644871 -525.4337330809947 -312.76744720817317 C -525.4337330809947 -313.1503040683656 -524.2851625004175 -316.72363476349443 -529.389920636316 -318.57410958775756 C -534.3670598188169 -320.42458441202075 -536.1537251663813 -317.36172953048174 -536.6003915032725 -317.36172953048174 C -537.0470578401635 -317.36172953048174 -537.3661052236572 -316.27696842660333 -537.3661052236572 -316.27696842660333 C -537.3661052236572 -316.27696842660333 -531.8146807508676 -339.3759989915435 -547.9584783556463 -339.3759989915435 C -558.0403756740457 -339.3759989915435 -571.9508415943687 -328.3369595226633 -578.8422650778316 -318.3826811576614 C -583.1813094933452 -316.02173051980844 -592.433683614661 -310.9807818606088 -602.3241525029641 -305.5569763412167 C -606.0889116281892 -303.45126361015866 -609.9812897068117 -301.34555087910053 -613.6184298786393 -299.3674571014399 C -613.8736677854342 -299.6226950082348 -614.1289056922292 -299.94174239172844 -614.3841435990241 -300.1969802985234 C -633.9098434688354 -321.06267917900806 -670.0260072803164 -335.80266829641465 -668.494579839547 -363.815028567157 C -667.9202945492584 -374.02454483895383 -664.4107733308283 -400.8245250524203 -599.1336786680276 -433.3673581687725 C -545.4060992876971 -459.84829099874537 -502.6537498995481 -452.51020117839147 -495.25185060249544 -436.23878462021537 C -484.65947747050626 -413.01213510187773 -518.1594527373394 -369.87692885353636 -573.6736974652343 -363.62360013706086 C -594.8584437292127 -361.26264949920784 -605.9612926747917 -369.43026251664526 -608.7689096495358 -372.49311739818427 C -611.7041455776773 -375.68359123312075 -612.1508119145685 -375.87501966321696 -613.2355730184469 -375.23692489622965 C -615.0222383660113 -374.2797827457487 -613.8736677854341 -371.40835629430586 -613.2355730184469 -369.7493099001389 C -611.57652662428 -365.41026548462526 -604.7489126175158 -357.7531282807777 -593.1993973350457 -353.9883691555527 C -582.989881063249 -350.6702763672187 -558.167994627443 -348.81980154295553 -528.1137311023413 -360.4331263021244 C -494.4861368821107 -373.45025954866526 -468.196632482234 -409.63023283684504 -475.91757916278027 -439.9397342687417 C -483.63852584332665 -470.69590203752944 -534.6861072023105 -480.8416088326275 -582.989881063249 -463.67685960066916 C -611.7041455776773 -453.4673433288724 -642.8431702066575 -437.3873552007925 -665.2402965279117 -416.4578468436091 C -691.848848311282 -391.5721509311045 -696.0602737733982 -369.9407383302351 -694.3374179025325 -360.8797926390155 C -688.1478986627557 -328.71981638285564 -643.8003123571384 -307.7903080256723 -626.0612778348916 -292.2846051878809 C -626.9546105086738 -291.7741293742911 -627.7841337057573 -291.3274630374 -628.4860379494432 -290.94460617720756 C -637.3555552105668 -286.54175228499525 -671.1745778608936 -268.866527239447 -679.5974287851259 -250.17035056671924 C -689.1688502899353 -228.98560430274094 -678.0660013443563 -213.79894884844322 -670.7279115240024 -211.75704559408388 C -647.9479283425559 -205.43990740090965 -624.529850394122 -216.79799425328355 -611.9593834844723 -235.55798040271011 C -599.3889165748225 -254.31796655213668 -600.920344015592 -278.6931866510515 -606.7270063951764 -289.8598450733292 C -606.7908158718751 -289.9874640267267 -606.8546253485739 -290.1150829801241 -606.9822443019714 -290.24270193352163 C -604.6851031408171 -291.5827009441949 -602.3241525029641 -292.986509431567 -600.0270113418098 -294.3265084422403 C -595.4965384962 -297.0065064635869 -591.029875127289 -299.49507605483745 -587.2013065253651 -301.5369793091968 C -589.3708287331219 -295.60269797621487 -590.9660656505902 -288.5198460626559 -591.7317793709749 -278.3103297908591 C -592.6889215214559 -266.3141481714979 -587.7755918156537 -250.74463585700786 -581.3308346690819 -244.6189260939298 C -578.4594082176391 -241.93892807258314 -575.0775059526064 -241.8751185958844 -572.9079837448496 -241.8751185958844 C -565.3784654943995 -241.8751185958844 -561.9965632293669 -248.12844731235992 -558.2318041041417 -255.53034660941256 C -553.6375217818332 -264.5912923006322 -549.4899057964158 -275.1198559559226 -549.4899057964158 -275.1198559559226 C -549.4899057964158 -275.1198559559226 -554.6584734090129 -246.6608293482891 -540.6203885352924 -246.6608293482891 C -535.515630399394 -246.6608293482891 -530.3470627867969 -253.29701492495698 -528.0499216256426 -256.67891718998965 C -528.0499216256426 -256.6151077132909 -528.0499216256426 -256.6151077132909 -528.0499216256426 -256.6151077132909 C -528.0499216256426 -256.6151077132909 -527.9223026722451 -256.8065361433871 -527.6670647654502 -257.2532024802782 C -527.1565889518604 -258.08272567736174 -526.8375415683666 -258.59320149095157 -526.8375415683666 -258.59320149095157 C -526.8375415683666 -258.59320149095157 -526.8375415683666 -258.6570109676503 -526.8375415683666 -258.720820444349 C -524.7956383140073 -262.2941511394779 -520.2013559916988 -270.39795468021657 -513.3737419849347 -283.86175426364855 C -504.56803420050994 -301.21793192570306 -496.0813737995789 -322.9131540032712 -496.0813737995789 -322.9131540032712 C -496.0813737995789 -322.9131540032712 -495.3156600791941 -317.61696743727657 -492.6994715345462 -308.8112596528519 C -491.1680440937767 -303.6426920402548 -487.9775702588402 -297.96364861406784 -485.42519119089104 -292.47603361797707 C -487.4670944452504 -289.60460716653427 -488.743283979225 -288.00937024906597 -488.743283979225 -288.00937024906597 C -488.743283979225 -288.00937024906597 -488.743283979225 -288.00937024906597 -488.6794745025262 -287.94556077236723 C -490.33852089669324 -285.7760385646104 -492.12518624425763 -283.4150879267574 -494.10328002191824 -281.11794676560316 C -501.0585129820798 -272.8227147947683 -509.35374495291467 -263.31510276665756 -510.5023155334918 -260.5712952686122 C -511.8423145441651 -257.3170119569769 -511.5232671606715 -254.95606131912393 -508.9708880927223 -253.04177701816204 C -507.1204132684592 -251.63796853078998 -503.80232048012516 -251.4465401006938 -500.4204182150925 -251.63796853078998 C -494.167089498617 -252.0846348676811 -489.76423560640467 -253.61606230845064 -487.59471339864785 -254.57320445893157 C -484.2128111336151 -255.78558451620742 -480.2566235782939 -257.63605934047064 -476.5556739297675 -260.379866838516 C -469.72805992300346 -265.42081549771564 -465.58044393758604 -272.6312863646721 -465.9633007977784 -282.1388983927829 C -466.15472922787455 -287.3712754820787 -467.87758509874027 -292.6036525713746 -469.9832978297984 -297.5169822771768 C -469.34520306281104 -298.410314950959 -468.7709177725225 -299.3036476247412 -468.1328230055352 -300.1969802985234 C -457.3490214434499 -315.95792104310965 -448.9899799959163 -333.2502892284655 -448.9899799959163 -333.2502892284655 C -448.9899799959163 -333.2502892284655 -448.22426627553153 -327.95410266247086 -445.60807773088356 -319.1483948780462 C -444.33188819690895 -314.6817315091351 -441.71569965226104 -309.83221128003163 -439.4185584911068 -305.1103100043256 C -449.56426528620483 -296.8788875101895 -455.8175940026804 -287.30746600538 -458.0509256871359 -281.0541372889045 C -462.0709227191559 -269.4408125297357 -458.94425836091807 -264.2084354404398 -453.00997702793626 -262.99605538316393 C -450.3299790065896 -262.42177009287536 -446.5014104046658 -263.69795962685 -443.6937934299217 -264.9103396841258 C -440.1204627347928 -266.05891026470294 -435.90903727267664 -268.0370040423636 -431.8890402406567 -270.97223997050514 C -425.0614262338926 -276.0131886297048 -418.4890501339234 -283.0322310665651 -418.8719069941158 -292.53984309467586 C -419.063335424212 -296.8788875101895 -420.21190600478917 -301.1541224490044 -421.8071429222574 -305.3017384344218 C -413.1928635679289 -308.87506912955064 -402.0900146223499 -310.8531629072113 -387.92431079523186 -309.1941165130443 C -357.5509998866364 -305.6207858179155 -351.55290907695587 -286.6693712383927 -352.70147965753296 -278.6931866510515 C -353.85005023811004 -270.71700206371025 -360.23099790798307 -266.3779576481966 -362.3367106390412 -265.03795863752333 C -364.4424233700992 -263.69795962685 -365.14432761378526 -263.2512932899589 -364.9528991836891 -262.2941511394779 C -364.6976612768942 -260.8903426521059 -363.6767096497145 -260.9541521288046 -361.8900443021501 -261.20939003559954 C -359.40147471089966 -261.65605637249064 -345.9376751274676 -267.6541471821713 -345.3633898371791 -282.3303268228791 C -344.4062476866982 -301.0903129723056 -362.2729011623425 -321.5731549925979 -393.8585921282138 -321.38172656250174 Z  M -628.1669905659496 -242.3855944094742 C -638.248887884349 -231.4103644172927 -652.2869727580695 -227.26274843187525 -658.3488730444489 -230.7722696503054 C -664.8574396677193 -234.53702877553044 -662.3050605997701 -250.74463585700784 -649.9260221202165 -262.3579606161766 C -642.3965038697664 -269.4408125297357 -632.6974634115595 -276.0131886297048 -626.2527062649878 -280.0331856617248 C -624.785088300917 -280.926518335507 -622.6155660931602 -282.2027078694816 -619.9993775485123 -283.79794478694987 C -619.5527112116212 -284.0531826937447 -619.2974733048262 -284.18080164714223 -619.2974733048262 -284.18080164714223 L -619.2974733048262 -284.18080164714223 C -618.7869974912363 -284.4998490306359 -618.2765216776465 -284.81889641412954 -617.7660458640567 -285.13794379762317 C -613.2355730184469 -268.5474798559534 -617.5746174339605 -253.93510969194432 -628.1669905659496 -242.3855944094742 Z  M -554.7860923624104 -292.2846051878809 C -558.2956135808405 -283.73413531025113 -565.6337034011945 -261.8474848025868 -570.1003667701056 -263.0598648598626 C -573.9289353720293 -264.08081648704234 -576.2898860098823 -280.67128042871207 -570.8660804904903 -297.07031594028564 C -568.1222729924449 -305.30173843442174 -562.3156106128605 -315.1283978460262 -558.9337083478279 -318.95696644795 C -553.4460933517371 -325.082676211028 -547.3841930653577 -327.1245794653874 -545.9165751012869 -324.6360098741369 C -544.0661002770237 -321.38172656250174 -552.6165701546536 -297.64460123057427 -554.7860923624104 -292.2846051878809 Z  M -494.23089897531577 -263.31510276665756 C -495.69851693938654 -262.54938904627284 -497.10232542675857 -262.038913232683 -497.7404201937459 -262.42177009287536 C -498.187086530637 -262.6770079996703 -497.10232542675857 -263.69795962685 -497.10232542675857 -263.69795962685 C -497.10232542675857 -263.69795962685 -489.5089976996097 -271.8655726442874 -486.5099522947694 -275.5665222928137 C -484.7870964239037 -277.73604450057053 -482.74519316954434 -280.28842356851976 -480.5756709617875 -283.15985001996256 C -480.5756709617875 -282.9046121131677 -480.5756709617875 -282.58556472967405 -480.5756709617875 -282.3303268228791 C -480.5756709617876 -272.5674768879734 -490.0194735131996 -265.99510078800427 -494.23089897531577 -263.31510276665756 Z  M -447.52236203184555 -273.9712853753455 C -448.6071231357239 -274.7369990957302 -448.41569470562774 -277.28937816367943 -444.77855453380016 -285.26556275102064 C -443.3747460464281 -288.3922271092584 -440.0566532580941 -293.62460419855427 -434.37760983190714 -298.6655528577539 C -433.7395150649199 -296.62364960339454 -433.2928487280288 -294.64555582573394 -433.35665820472747 -292.79508100147075 C -433.42046768142626 -280.4798519986159 -442.22617546585093 -275.88556967630734 -447.52236203184555 -273.9712853753455 Z " fill-rule="evenodd" fill="rgb(255,255,255)" stroke-width="2.4354603019970775" stroke="rgba(0,0,0,0)" stroke-linejoin="miter" stroke-linecap="butt"/></svg>